<?xml version="1.0" encoding="UTF-8"?>
<svg width="1260px" height="17px" viewBox="0 0 1260 17" version="1.1" xmlns="http://www.w3.org/2000/svg" xmlns:xlink="http://www.w3.org/1999/xlink">
    <!-- Generator: Sketch 63.1 (92452) - https://sketch.com -->
    <title>Shape Copy</title>
    <desc>Created with Sketch.</desc>
    <g id="Page-2" stroke="none" stroke-width="1" fill="none" fill-rule="evenodd" opacity="0.5">
        <g id="Anchor-Content-Hub-Wireframe" transform="translate(-116.000000, -2424.000000)" stroke="#aaa">
            <path d="M1376,2425.01522 C1356.84027,2425.01522 1344.68813,2428.91755 1332.93698,2432.69091 C1321.23234,2436.44989 1310.17659,2440 1292.26811,2440 C1274.32548,2439.99619 1263.19259,2436.4482 1251.40552,2432.69218 C1239.54014,2428.91078 1227.27082,2425 1207.96389,2425 C1188.80357,2425 1176.65143,2428.90655 1164.89969,2432.68414 C1153.19564,2436.44651 1142.14107,2440 1124.23259,2440 C1106.28583,2439.99704 1095.15177,2436.45201 1083.36352,2432.69894 C1071.49872,2428.92135 1059.22941,2425.01522 1039.92306,2425.01522 C1020.76333,2425.01522 1008.61119,2428.91755 996.860038,2432.69133 C985.155403,2436.44989 974.100829,2440 956.192349,2440 C938.24854,2439.99662 927.115652,2436.4482 915.329171,2432.69218 C903.463787,2428.91078 891.194471,2425 871.887535,2425 C852.727216,2425 840.575075,2428.90655 828.823334,2432.68414 C817.119288,2436.44651 806.064715,2440 788.156823,2440 C770.207126,2439.99746 759.072472,2436.45243 747.284224,2432.69894 C735.41884,2428.92135 723.149524,2425.01522 703.843177,2425.01522 C684.683447,2425.01522 672.531306,2428.91755 660.780154,2432.69133 C649.075519,2436.44989 638.020945,2440 620.112465,2440 C602.169245,2439.99662 591.035769,2436.4482 579.249287,2432.69218 C567.383315,2428.91078 555.113998,2425 535.807062,2425 C516.646743,2425 504.494602,2428.90655 492.743451,2432.68414 C481.039404,2436.44651 469.984242,2440 452.076351,2440 C434.129597,2439.99704 422.994944,2436.45201 411.207873,2432.69894 C399.341901,2428.92135 387.072584,2425.01522 367.766237,2425.01522 C348.606507,2425.01522 336.454955,2428.91755 324.703803,2432.69133 C312.999168,2436.44989 301.944006,2440 284.035526,2440 C266.092894,2439.99662 254.958829,2436.4482 243.172937,2432.69218 C231.306964,2428.91078 219.037647,2425 199.730711,2425 C180.570392,2425 168.41884,2428.90655 156.6671,2432.68414 C144.963054,2436.44651 133.907891,2440 116,2440" id="Shape-Copy"></path>
        </g>
    </g>
</svg>